<?xml version="1.0" encoding="UTF-8" standalone="no"?>
<!-- Created with Inkscape (http://www.inkscape.org/) -->

<svg
   xmlns:dc="http://purl.org/dc/elements/1.1/"
   xmlns:cc="http://creativecommons.org/ns#"
   xmlns:rdf="http://www.w3.org/1999/02/22-rdf-syntax-ns#"
   xmlns:svg="http://www.w3.org/2000/svg"
   xmlns="http://www.w3.org/2000/svg"
   xmlns:sodipodi="http://sodipodi.sourceforge.net/DTD/sodipodi-0.dtd"
   xmlns:inkscape="http://www.inkscape.org/namespaces/inkscape"
   width="850.36176"
   height="533.36212"
   id="svg2"
   sodipodi:version="0.32"
   inkscape:version="0.48.4 r9939"
   version="1.0"
   sodipodi:docname="Noninverting_Amplifier.svg"
   inkscape:output_extension="org.inkscape.output.svg.inkscape">
  <defs
     id="defs4">
    <marker
       inkscape:stockid="Arrow2Mend"
       orient="auto"
       refY="0"
       refX="0"
       id="Arrow2Mend"
       style="overflow:visible">
      <path
         id="path3209"
         style="font-size:12px;fill-rule:evenodd;stroke-width:0.625;stroke-linejoin:round"
         d="M 8.7185878,4.0337352 -2.2072895,0.01601326 8.7185884,-4.0017078 c -1.7454984,2.3720609 -1.7354408,5.6174519 -6e-7,8.035443 z"
         transform="scale(-0.6,-0.6)"
         inkscape:connector-curvature="0" />
    </marker>
    <marker
       inkscape:stockid="Arrow1Mend"
       orient="auto"
       refY="0"
       refX="0"
       id="Arrow1Mend"
       style="overflow:visible">
      <path
         id="path3191"
         d="M 0,0 5,-5 -12.5,0 5,5 0,0 z"
         style="fill-rule:evenodd;stroke:#000000;stroke-width:1pt;marker-start:none"
         transform="matrix(-0.4,0,0,-0.4,-4,0)"
         inkscape:connector-curvature="0" />
    </marker>
    <marker
       inkscape:stockid="TriangleOutM"
       orient="auto"
       refY="0"
       refX="0"
       id="TriangleOutM"
       style="overflow:visible">
      <path
         id="path7199"
         d="m 5.77,0 -8.65,5 0,-10 8.65,5 z"
         style="fill-rule:evenodd;stroke:#000000;stroke-width:1pt;marker-start:none"
         transform="scale(0.4,0.4)"
         inkscape:connector-curvature="0" />
    </marker>
    <marker
       inkscape:stockid="Arrow2Lend"
       orient="auto"
       refY="0"
       refX="0"
       id="Arrow2Lend"
       style="overflow:visible">
      <path
         id="path7119"
         style="font-size:12px;fill-rule:evenodd;stroke-width:0.625;stroke-linejoin:round"
         d="M 8.7185878,4.0337352 -2.2072895,0.01601326 8.7185884,-4.0017078 c -1.7454984,2.3720609 -1.7354408,5.6174519 -6e-7,8.035443 z"
         transform="matrix(-1.1,0,0,-1.1,-1.1,0)"
         inkscape:connector-curvature="0" />
    </marker>
    <marker
       style="overflow:visible"
       id="marker4422"
       refX="0"
       refY="0"
       orient="auto"
       inkscape:stockid="Arrow2Lend">
      <path
         transform="matrix(-1.1,0,0,-1.1,-1.1,0)"
         d="M 8.7185878,4.0337352 -2.2072895,0.01601326 8.7185884,-4.0017078 c -1.7454984,2.3720609 -1.7354408,5.6174519 -6e-7,8.035443 z"
         style="font-size:12px;fill-rule:evenodd;stroke-width:0.625;stroke-linejoin:round"
         id="path4424"
         inkscape:connector-curvature="0" />
    </marker>
    <marker
       style="overflow:visible"
       id="marker4418"
       refX="0"
       refY="0"
       orient="auto"
       inkscape:stockid="TriangleOutM">
      <path
         transform="scale(0.4,0.4)"
         style="fill-rule:evenodd;stroke:#000000;stroke-width:1pt;marker-start:none"
         d="m 5.77,0 -8.65,5 0,-10 8.65,5 z"
         id="path4420"
         inkscape:connector-curvature="0" />
    </marker>
    <marker
       style="overflow:visible"
       id="marker4415"
       refX="0"
       refY="0"
       orient="auto"
       inkscape:stockid="Arrow1Mend">
      <path
         transform="matrix(-0.4,0,0,-0.4,-4,0)"
         style="fill-rule:evenodd;stroke:#000000;stroke-width:1pt;marker-start:none"
         d="M 0,0 5,-5 -12.5,0 5,5 0,0 z"
         id="path3185"
         inkscape:connector-curvature="0" />
    </marker>
    <marker
       style="overflow:visible"
       id="marker4412"
       refX="0"
       refY="0"
       orient="auto"
       inkscape:stockid="Arrow2Mend">
      <path
         transform="scale(-0.6,-0.6)"
         d="M 8.7185878,4.0337352 -2.2072895,0.01601326 8.7185884,-4.0017078 c -1.7454984,2.3720609 -1.7354408,5.6174519 -6e-7,8.035443 z"
         style="font-size:12px;fill-rule:evenodd;stroke-width:0.625;stroke-linejoin:round"
         id="path3203"
         inkscape:connector-curvature="0" />
    </marker>
  </defs>
  <sodipodi:namedview
     id="base"
     pagecolor="#ffffff"
     bordercolor="#666666"
     borderopacity="1.0"
     inkscape:pageopacity="0.0"
     inkscape:pageshadow="2"
     inkscape:zoom="0.98994949"
     inkscape:cx="638.1194"
     inkscape:cy="299.09564"
     inkscape:document-units="px"
     inkscape:current-layer="layer1"
     showgrid="false"
     inkscape:grid-points="false"
     gridtolerance="18.1"
     inkscape:grid-bbox="false"
     width="750px"
     height="550px"
     inkscape:object-paths="false"
     inkscape:window-width="1600"
     inkscape:window-height="1125"
     inkscape:window-x="1600"
     inkscape:window-y="25"
     inkscape:guide-bbox="false"
     inkscape:window-maximized="1"
     fit-margin-top="0"
     fit-margin-left="0"
     fit-margin-right="0"
     fit-margin-bottom="0">
    <inkscape:grid
       id="GridFromPre046Settings"
       type="xygrid"
       originx="-10.400128px"
       originy="-7.1949443px"
       spacingx="1px"
       spacingy="1px"
       color="#3f3fff"
       empcolor="#3f3fff"
       opacity="0.15"
       empopacity="0.38"
       empspacing="5"
       visible="true"
       enabled="true"
       snapvisiblegridlinesonly="true" />
  </sodipodi:namedview>
  <metadata
     id="metadata7">
    <rdf:RDF>
      <cc:Work
         rdf:about="">
        <dc:format>image/svg+xml</dc:format>
        <dc:type
           rdf:resource="http://purl.org/dc/dcmitype/StillImage" />
      </cc:Work>
    </rdf:RDF>
  </metadata>
  <g
     inkscape:label="Ebene 1"
     inkscape:groupmode="layer"
     id="layer1"
     transform="translate(-10.400128,-9.442919)">
    <path
       style="fill:#ffffff;fill-opacity:1;stroke:#000000;stroke-width:6.22949409;stroke-miterlimit:4;stroke-opacity:1"
       d="m 509.14236,152.31257 -111.35847,66.62557 -114.58425,68.69059 -0.0857,-137.53553 0.0857,-137.535534 111.44414,70.909968 114.4986,68.844936 z"
       id="path4123"
       sodipodi:nodetypes="ccccccc"
       inkscape:connector-curvature="0" />
    <path
       style="fill:none;stroke:#000000;stroke-width:6.22949409px;stroke-linecap:butt;stroke-linejoin:miter;stroke-opacity:1"
       d="m 302.91809,203.49817 24.4355,0"
       id="path5096"
       inkscape:connector-curvature="0" />
    <g
       id="g7373"
       transform="matrix(5.5299568,0,0,5.6087047,-85.191857,-280.86886)">
      <path
         id="path5098"
         d="m 70.183178,66.625098 4.418751,0"
         style="fill:none;stroke:#000000;stroke-width:1.11856341px;stroke-linecap:butt;stroke-linejoin:miter;stroke-opacity:1"
         inkscape:connector-curvature="0" />
      <path
         id="path5100"
         d="m 72.392554,64.359871 0,4.530454"
         style="fill:none;stroke:#000000;stroke-width:1.11856341px;stroke-linecap:butt;stroke-linejoin:miter;stroke-opacity:1"
         inkscape:connector-curvature="0" />
    </g>
    <path
       sodipodi:type="arc"
       style="fill:#ffffff;fill-opacity:1;stroke:#000000;stroke-width:1;stroke-miterlimit:4;stroke-opacity:1;stroke-dasharray:none"
       id="path5104"
       sodipodi:cx="12.5"
       sodipodi:cy="37.5"
       sodipodi:rx="2.5"
       sodipodi:ry="2.5"
       d="M 15,37.5 C 15,38.880712 13.880712,40 12.5,40 11.119288,40 10,38.880712 10,37.5 10,36.119288 11.119288,35 12.5,35 c 1.380712,0 2.5,1.119288 2.5,2.5 z"
       transform="matrix(5.0907278,0,0,5.2937464,20.401392,-107.19142)" />
    <rect
       style="fill:#ffffff;fill-opacity:1;stroke:#000000;stroke-width:4.25209761;stroke-miterlimit:4;stroke-opacity:1;stroke-dasharray:none"
       id="rect5112"
       width="89.910339"
       height="33.783623"
       x="230.16872"
       y="-570.67169"
       transform="matrix(0,1,-1,0,0,0)" />
    <path
       sodipodi:type="arc"
       style="fill:#ffffff;fill-opacity:1;stroke:#000000;stroke-width:1;stroke-miterlimit:4;stroke-opacity:1;stroke-dasharray:none"
       id="path5120"
       sodipodi:cx="12.5"
       sodipodi:cy="37.5"
       sodipodi:rx="2.5"
       sodipodi:ry="2.5"
       d="M 15,37.5 C 15,38.880712 13.880712,40 12.5,40 11.119288,40 10,38.880712 10,37.5 10,36.119288 11.119288,35 12.5,35 c 1.380712,0 2.5,1.119288 2.5,2.5 z"
       transform="matrix(5.0907278,0,0,5.2937464,595.51692,-45.495665)" />
    <path
       style="fill:none;stroke:#000000;stroke-width:6.22949409px;stroke-linecap:butt;stroke-linejoin:miter;stroke-opacity:1"
       d="m 95.095403,91.324067 188.018537,0"
       id="path5122"
       sodipodi:nodetypes="cc"
       inkscape:connector-curvature="0" />
    <path
       style="fill:none;stroke:#000000;stroke-width:6.22949409px;stroke-linecap:butt;stroke-linejoin:miter;stroke-opacity:1"
       d="m 507.587,153.01982 140.5041,0"
       id="path5143"
       inkscape:connector-curvature="0" />
    <path
       sodipodi:type="arc"
       style="fill:#000000;fill-opacity:1;stroke:#000000;stroke-width:1.00039029;stroke-miterlimit:4;stroke-opacity:1;stroke-dasharray:none"
       id="path5151"
       sodipodi:cx="55"
       sodipodi:cy="38"
       sodipodi:rx="1"
       sodipodi:ry="1"
       d="m 56,38 c 0,0.552285 -0.447715,1 -1,1 -0.552285,0 -1,-0.447715 -1,-1 0,-0.552285 0.447715,-1 1,-1 0.552285,0 1,0.447715 1,1 z"
       transform="matrix(6.1088753,0,0,6.3524942,218.09367,119.14712)" />
    <path
       sodipodi:type="arc"
       style="fill:#000000;fill-opacity:1;stroke:#000000;stroke-width:1;stroke-miterlimit:4;stroke-opacity:1;stroke-dasharray:none"
       id="path6122"
       sodipodi:cx="55"
       sodipodi:cy="38"
       sodipodi:rx="1"
       sodipodi:ry="1"
       d="m 56,38 c 0,0.552285 -0.447715,1 -1,1 -0.552285,0 -1,-0.447715 -1,-1 0,-0.552285 0.447715,-1 1,-1 0.552285,0 1,0.447715 1,1 z"
       transform="matrix(6.1088753,0,0,6.3524942,218.09367,-88.374959)" />
    <g
       id="g7349"
       transform="matrix(5.5299568,0,0,5.6087047,-13.787913,238.20187)">
      <text
         transform="scale(0.98759501,1.0125608)"
         id="text7307"
         y="10.499313"
         x="108.84168"
         style="font-size:11.18563366px;font-style:normal;font-weight:normal;fill:#000000;fill-opacity:1;stroke:none;font-family:Arial"
         xml:space="preserve"><tspan
           y="10.499313"
           x="108.84168"
           id="tspan7309"
           sodipodi:role="line">100k</tspan></text>
    </g>
    <path
       style="fill:none;stroke:#000000;stroke-width:5.56919146;stroke-linecap:butt;stroke-linejoin:miter;stroke-miterlimit:4;stroke-opacity:1;stroke-dasharray:none"
       d="m 554.08183,320.52779 0,78.07315"
       id="path7384"
       sodipodi:nodetypes="cc"
       inkscape:connector-curvature="0" />
    <rect
       style="fill:#ffffff;fill-opacity:1;stroke:#000000;stroke-width:4.25209761;stroke-miterlimit:4;stroke-opacity:1;stroke-dasharray:none"
       id="rect7386"
       width="89.910339"
       height="33.783623"
       x="398.60098"
       y="-570.67169"
       transform="matrix(0,1,-1,0,0,0)" />
    <path
       style="fill:none;stroke:#000000;stroke-width:5.56919146px;stroke-linecap:butt;stroke-linejoin:miter;stroke-opacity:1"
       d="m 554.08183,153.01982 0,78.52187"
       id="path15184"
       sodipodi:nodetypes="cc"
       inkscape:connector-curvature="0" />
    <path
       style="fill:none;stroke:#000000;stroke-width:5.56919146px;stroke-linecap:butt;stroke-linejoin:miter;stroke-opacity:1"
       d="m 554.08183,488.34023 0,50.47833"
       id="path16155"
       inkscape:connector-curvature="0" />
    <path
       style="fill:none;stroke:#000000;stroke-width:5.56919146px;stroke-linecap:butt;stroke-linejoin:miter;stroke-opacity:1"
       d="m 537.49195,540.02046 33.17975,0"
       id="path16157"
       inkscape:connector-curvature="0" />
    <path
       style="fill:none;stroke:#000000;stroke-width:5.56919146px;stroke-linecap:butt;stroke-linejoin:miter;stroke-opacity:1"
       d="m 554.08183,360.54189 -359.44721,0 0,-157.04372 88.47932,0"
       id="path16163"
       inkscape:connector-curvature="0" />
    <text
       transform="scale(0.98063742,1.0197449)"
       id="text7307-9"
       y="457.53751"
       x="592.10004"
       style="font-size:62.29493713px;font-style:normal;font-weight:normal;fill:#000000;fill-opacity:1;stroke:none;font-family:Arial"
       xml:space="preserve"><tspan
         y="457.53751"
         x="592.10004"
         id="tspan7309-7"
         sodipodi:role="line">1k</tspan></text>
    <path
       id="path3174-7"
       style="fill:none;stroke:#000000;stroke-width:2;stroke-linecap:butt;stroke-linejoin:miter;stroke-miterlimit:4;stroke-opacity:1;stroke-dasharray:none"
       d="m 54.051868,74.456423 c -11.94993,-10.20626 -19.76615,7.18203 -19.76615,7.18203 0,0 -7.81622,-17.39136 -19.76615,-7.1851 -13.2007598,11.274572 19.76615,36.951907 19.76615,36.951907 0,0 32.96691,-25.674265 19.76615,-36.948837 z"
       inkscape:connector-curvature="0"
       sodipodi:nodetypes="scscs" />
    <path
       id="path3174-7-9"
       style="fill:none;stroke:#000000;stroke-width:10;stroke-linecap:butt;stroke-linejoin:miter;stroke-miterlimit:4;stroke-opacity:1;stroke-dasharray:none"
       d="m 845.22447,96.041054 c -40.36677,-34.47666 -66.7699,24.260846 -66.7699,24.260846 0,0 -26.40313,-58.747876 -66.7699,-24.271216 -44.59206,38.085416 66.7699,124.823226 66.7699,124.823226 0,0 111.36196,-86.72744 66.7699,-124.812856 z"
       inkscape:connector-curvature="0"
       sodipodi:nodetypes="scscs" />
  </g>
</svg>
