<?xml version="1.0" encoding="UTF-8" standalone="no"?>
<svg
   xmlns:dc="http://purl.org/dc/elements/1.1/"
   xmlns:cc="http://creativecommons.org/ns#"
   xmlns:rdf="http://www.w3.org/1999/02/22-rdf-syntax-ns#"
   xmlns:svg="http://www.w3.org/2000/svg"
   xmlns="http://www.w3.org/2000/svg"
   xmlns:sodipodi="http://sodipodi.sourceforge.net/DTD/sodipodi-0.dtd"
   xmlns:inkscape="http://www.inkscape.org/namespaces/inkscape"
   width="39.874149mm"
   height="39.931946mm"
   viewBox="0 0 39.874149 39.931946"
   version="1.1"
   id="svg8"
   inkscape:version="1.0.1 (3bc2e813f5, 2020-09-07)"
   sodipodi:docname="person.svg">
  <defs
     id="defs2" />
  <sodipodi:namedview
     id="base"
     pagecolor="#ffffff"
     bordercolor="#666666"
     borderopacity="1.0"
     inkscape:pageopacity="0.0"
     inkscape:pageshadow="2"
     inkscape:zoom="2.8"
     inkscape:cx="211.21877"
     inkscape:cy="67.394777"
     inkscape:document-units="mm"
     inkscape:current-layer="layer1"
     inkscape:document-rotation="0"
     showgrid="false"
     inkscape:snap-global="false"
     fit-margin-top="0"
     fit-margin-left="0"
     fit-margin-right="0"
     fit-margin-bottom="0"
     inkscape:window-width="1920"
     inkscape:window-height="996"
     inkscape:window-x="1920"
     inkscape:window-y="28"
     inkscape:window-maximized="1" />
  <metadata
     id="metadata5">
    <rdf:RDF>
      <cc:Work
         rdf:about="">
        <dc:format>image/svg+xml</dc:format>
        <dc:type
           rdf:resource="http://purl.org/dc/dcmitype/StillImage" />
        <dc:title></dc:title>
      </cc:Work>
    </rdf:RDF>
  </metadata>
  <g
     inkscape:label="Layer 1"
     inkscape:groupmode="layer"
     id="layer1"
     transform="translate(-82.433459,-57.871259)">
    <g
       id="g1464"
       transform="matrix(0.26677417,0,0,0.26677417,75.06072,42.432702)"
       style="stroke-width:3.74849">
      <path
         style="opacity:1;fill:#654208;fill-opacity:1;stroke:none;stroke-width:0.993346;stroke-linecap:round;stroke-linejoin:round"
         d="m 86.506945,176.51643 c -1.313087,-0.65915 -37.72527,-23.94058 -37.72527,-23.94058 2.188996,-52.10616 14.073088,-95.295456 73.564995,-94.698476 1.66299,4.606711 -0.34185,10.222063 15.09663,11.04057 22.98184,7.344832 32.00314,36.182346 32.63961,77.928556 -10.04723,13.21645 -27.14856,24.76647 -29.10172,27.68211 z"
         id="path1340"
         sodipodi:nodetypes="ccccccc" />
      <path
         style="opacity:1;fill:#451b00;fill-opacity:1;stroke:none;stroke-width:0.993346;stroke-linecap:round;stroke-linejoin:round"
         d="m 79.257421,164.23631 v -36.7935 h 60.789399 v 48.55663 H 78.991652 Z"
         id="path1449" />
      <path
         style="opacity:1;fill:#eda712;fill-opacity:1;stroke:none;stroke-width:0.993346;stroke-linecap:round;stroke-linejoin:round"
         d="m 88.945132,134.49333 -0.386663,50.07863 41.618761,0.46703 -1.89002,-58.69246 z"
         id="path1327" />
      <path
         style="opacity:1;fill:#2980b9;fill-opacity:0.985294;stroke:none;stroke-width:0.993346;stroke-linecap:round;stroke-linejoin:round"
         d="m 44.930316,205.0778 c -29.953544,-136.718533 -14.976772,-68.35927 0,0 z"
         id="path1359"
         sodipodi:nodetypes="cc" />
      <path
         style="opacity:1;fill:#e67e22;fill-opacity:1;stroke:none;stroke-width:0.993346;stroke-linecap:round;stroke-linejoin:round"
         d="m 88.945132,134.49333 -0.386663,27.21171 c 13.607841,9.13469 27.447131,10.42929 41.618761,0.46703 l -1.89002,-31.1345 z"
         id="path1327-7"
         sodipodi:nodetypes="ccccc" />
      <ellipse
         style="fill:#eda712;fill-opacity:1;stroke:none;stroke-width:0.993346;stroke-linecap:round;stroke-linejoin:round"
         id="path1325"
         cx="109.36785"
         cy="119.45917"
         rx="33.673977"
         ry="38.720055" />
      <g
         id="g1387"
         transform="matrix(0.84025655,0,0,0.84025655,21.072435,40.325248)"
         style="stroke-width:4.46111">
        <g
           id="g1391"
           style="stroke-width:4.46111">
          <circle
             style="opacity:1;fill:#654208;fill-opacity:1;stroke:none;stroke-width:1.18219;stroke-linecap:round;stroke-linejoin:round"
             id="path1342"
             cx="87.518448"
             cy="92.071716"
             r="4.688077" />
          <circle
             style="opacity:1;fill:#654208;fill-opacity:1;stroke:none;stroke-width:1.18219;stroke-linecap:round;stroke-linejoin:round"
             id="path1342-6"
             cx="122.64455"
             cy="92.195053"
             r="4.688077" />
        </g>
      </g>
      <path
         style="opacity:1;fill:#2980b9;fill-opacity:1;stroke:none;stroke-width:0.993346;stroke-linecap:round;stroke-linejoin:round"
         d="M 41.804858,207.55571 H 177.10444 c -0.32887,-23.61376 -6.60753,-43.30836 -47.19704,-52.15473 -0.20337,9.8386 -8.54022,20.0047 -20.28635,20.08763 -11.746104,0.0829 -20.906865,-8.80216 -20.842105,-20.85498 -23.311011,7.82733 -47.003615,17.03708 -46.974087,52.92208 z"
         id="path1393"
         sodipodi:nodetypes="ccczcc" />
      <path
         style="opacity:1;fill:#654208;fill-opacity:1;stroke:none;stroke-width:0.993346;stroke-linecap:round;stroke-linejoin:round"
         d="M 73.082228,111.10968 116.01631,83.175201 156.06883,125.9295 131.88165,74.662265 90.199288,75.613833 67.039952,101.78349 Z"
         id="path1395"
         sodipodi:nodetypes="ccccccc" />
      <path
         style="opacity:1;fill:#2c3e50;fill-opacity:1;stroke:none;stroke-width:0.993346;stroke-linecap:round;stroke-linejoin:round"
         d="m 82.815005,156.2022 5.892769,-1.91778 c 2.960875,16.6345 10.953507,20.76467 20.613566,20.94848 9.66006,0.18381 18.49354,-6.02671 20.61357,-20.11133 l 5.15042,1.07917 c -2.00165,17.30007 -15.90797,24.31709 -25.95907,24.35253 -10.051094,0.0354 -24.652759,-9.03425 -26.311255,-24.35107 z"
         id="path1436"
         sodipodi:nodetypes="cczcczc" />
    </g>
  </g>
</svg>
