<?xml version="1.0" encoding="UTF-8" standalone="no"?>
<svg
   xmlns:dc="http://purl.org/dc/elements/1.1/"
   xmlns:cc="http://creativecommons.org/ns#"
   xmlns:rdf="http://www.w3.org/1999/02/22-rdf-syntax-ns#"
   xmlns:svg="http://www.w3.org/2000/svg"
   xmlns="http://www.w3.org/2000/svg"
   xmlns:sodipodi="http://sodipodi.sourceforge.net/DTD/sodipodi-0.dtd"
   xmlns:inkscape="http://www.inkscape.org/namespaces/inkscape"
   width="77.642075mm"
   height="44.686958mm"
   viewBox="0 0 77.642075 44.686958"
   version="1.1"
   id="svg9314"
   inkscape:version="1.0.1 (3bc2e813f5, 2020-09-07)"
   sodipodi:docname="lineart_dachshund.svg">
  <defs
     id="defs9308" />
  <sodipodi:namedview
     id="base"
     pagecolor="#ffffff"
     bordercolor="#666666"
     borderopacity="1.0"
     inkscape:pageopacity="0.0"
     inkscape:pageshadow="2"
     inkscape:zoom="0.7"
     inkscape:cx="186.5141"
     inkscape:cy="-88.262082"
     inkscape:document-units="mm"
     inkscape:current-layer="layer1"
     inkscape:document-rotation="0"
     showgrid="false"
     fit-margin-top="0"
     fit-margin-left="0"
     fit-margin-right="0"
     fit-margin-bottom="0"
     inkscape:window-width="1920"
     inkscape:window-height="996"
     inkscape:window-x="1920"
     inkscape:window-y="28"
     inkscape:window-maximized="1" />
  <metadata
     id="metadata9311">
    <rdf:RDF>
      <cc:Work
         rdf:about="">
        <dc:format>image/svg+xml</dc:format>
        <dc:type
           rdf:resource="http://purl.org/dc/dcmitype/StillImage" />
        <dc:title></dc:title>
      </cc:Work>
    </rdf:RDF>
  </metadata>
  <g
     inkscape:label="Layer 1"
     inkscape:groupmode="layer"
     id="layer1"
     transform="translate(19.166275,-121.28747)">
    <g
       id="g9290"
       transform="matrix(0.26458333,0,0,0.26458333,-39.342899,-836.15107)">
      <path
         style="fill:none;stroke:#000000;stroke-width:6;stroke-linecap:round;stroke-linejoin:round;stroke-miterlimit:4;stroke-dasharray:none"
         d="m 323.94142,3771.3215 c -5.26844,2.1381 -10.62899,4.156 -10.57639,13.2395 h 29.43242 v -14.6281 c 0.68651,-6.7144 -3.66859,-13.7108 -8.48518,-20.733 8.21444,-15.5229 15.03567,-31.8413 16.15422,-51.4154 -6.86954,-18.0087 -22.71404,-26.2477 -45.09766,-27.3685 l -103.62906,9.5232 -27.54168,-16.6547"
         id="path995"
         sodipodi:nodetypes="ccccccccc" />
      <path
         style="fill:none;stroke:#000000;stroke-width:6;stroke-linecap:round;stroke-linejoin:round;stroke-miterlimit:4;stroke-dasharray:none"
         d="m 351.15144,3698.2159 c 4.39529,-0.1968 4.87058,7.681 5.91567,19.3627 l 0.44191,14.9352 c -0.41057,7.035 2.02583,10.8555 9.19945,9.3275"
         id="path997"
         sodipodi:nodetypes="cccc" />
      <path
         style="fill:none;stroke:#000000;stroke-width:6;stroke-linecap:round;stroke-linejoin:round;stroke-miterlimit:4;stroke-dasharray:none"
         d="m 192.74465,3740.0339 c 15.1178,1.9781 29.53146,4.8334 51.08844,-1.2098 16.47171,-9.093 32.70713,-17.1817 47.31629,-18.359"
         id="path999"
         sodipodi:nodetypes="ccc" />
      <path
         style="fill:none;stroke:#000000;stroke-width:6;stroke-linecap:round;stroke-linejoin:round;stroke-miterlimit:4;stroke-dasharray:none"
         d="m 274.04182,3705.7861 c 5.24244,-1.8048 21.09259,17.8118 39.53526,42.6639"
         id="path1001"
         sodipodi:nodetypes="cc" />
      <path
         style="fill:none;stroke:#000000;stroke-width:6;stroke-linecap:round;stroke-linejoin:round;stroke-miterlimit:4;stroke-dasharray:none"
         d="m 175.96799,3783.6549 h -27.1997 c 0.84935,-7.3045 6.60374,-11.8356 14.26158,-15.2904 5.26703,-7.0646 7.784,-16.162 7.73136,-27.1588 -7.95852,-4.9369 -15.54092,-10.3414 -19.2177,-20.6015 1.94227,-12.2598 4.30417,-21.2477 -0.62559,-33.4525"
         id="path1003"
         sodipodi:nodetypes="cccccc" />
      <path
         style="fill:none;stroke:#000000;stroke-width:6;stroke-linecap:round;stroke-linejoin:round;stroke-miterlimit:4;stroke-dasharray:none"
         d="m 138.13411,3649.2099 -8.92515,26.7168 c 0.013,10.8716 4.66613,15.7872 16.51562,11.4653 14.85032,-5.393 22.82003,-15.3935 29.9551,-25.9529 -1.10108,-16.0802 -5.59602,-30.5936 -23.33879,-38.9914 l -21.56553,-0.7823 c -8.35388,3.1607 -17.12752,7.8601 -27.04187,16.741 H 79.258109 v 17.8349 c 3.838004,6.7734 8.002508,12.7963 14.552092,13.3373 l 23.244979,1.3913"
         id="path1005"
         sodipodi:nodetypes="ccccccccccc" />
      <circle
         style="fill:#000000;stroke:none;stroke-width:6;stroke-linecap:round;stroke-linejoin:round;stroke-miterlimit:4;stroke-dasharray:none"
         id="path908-7-6"
         cx="121.52454"
         cy="3642.5227"
         r="3.847333" />
    </g>
  </g>
</svg>
