<?xml version="1.0" encoding="UTF-8" standalone="no"?>
<svg
   xmlns:dc="http://purl.org/dc/elements/1.1/"
   xmlns:cc="http://creativecommons.org/ns#"
   xmlns:rdf="http://www.w3.org/1999/02/22-rdf-syntax-ns#"
   xmlns:svg="http://www.w3.org/2000/svg"
   xmlns="http://www.w3.org/2000/svg"
   xmlns:sodipodi="http://sodipodi.sourceforge.net/DTD/sodipodi-0.dtd"
   xmlns:inkscape="http://www.inkscape.org/namespaces/inkscape"
   width="82.641617mm"
   height="36.006237mm"
   viewBox="0 0 82.641617 36.006237"
   version="1.1"
   id="svg6169"
   inkscape:version="1.0.1 (3bc2e813f5, 2020-09-07)"
   sodipodi:docname="lineart_shark.svg">
  <defs
     id="defs6163" />
  <sodipodi:namedview
     id="base"
     pagecolor="#ffffff"
     bordercolor="#666666"
     borderopacity="1.0"
     inkscape:pageopacity="0.0"
     inkscape:pageshadow="2"
     inkscape:zoom="0.98994949"
     inkscape:cx="143.51816"
     inkscape:cy="34.038763"
     inkscape:document-units="mm"
     inkscape:current-layer="layer1"
     inkscape:document-rotation="0"
     showgrid="false"
     fit-margin-top="0"
     fit-margin-left="0"
     fit-margin-right="0"
     fit-margin-bottom="0"
     inkscape:window-width="1920"
     inkscape:window-height="996"
     inkscape:window-x="1920"
     inkscape:window-y="28"
     inkscape:window-maximized="1" />
  <metadata
     id="metadata6166">
    <rdf:RDF>
      <cc:Work
         rdf:about="">
        <dc:format>image/svg+xml</dc:format>
        <dc:type
           rdf:resource="http://purl.org/dc/dcmitype/StillImage" />
        <dc:title></dc:title>
      </cc:Work>
    </rdf:RDF>
  </metadata>
  <g
     inkscape:label="Layer 1"
     inkscape:groupmode="layer"
     id="layer1"
     transform="translate(-76.607764,-143.01473)">
    <g
       id="g6148"
       transform="matrix(0.26458333,0,0,0.26458333,58.297778,-456.14908)">
      <path
         style="fill:none;stroke:#000000;stroke-width:6;stroke-linecap:round;stroke-linejoin:round;stroke-miterlimit:4;stroke-dasharray:none"
         d="m 104.23479,2359.7522 c 10.4796,4.7987 23.23779,8.3348 45.0467,6.8557 8.12141,20.1994 24.13895,31.2546 49.8953,31.0317 -12.03231,-9.1724 -18.65505,-21.5392 -13.77903,-40.6962"
         id="path942"
         sodipodi:nodetypes="cccc" />
      <path
         style="fill:none;stroke:#000000;stroke-width:6;stroke-linecap:round;stroke-linejoin:round;stroke-miterlimit:4;stroke-dasharray:none"
         d="m 184.51974,2367.2037 69.01384,-5.2805 c 8.236,7.5589 16.96238,14.8536 38.43364,15.2811"
         id="path944"
         sodipodi:nodetypes="ccc" />
      <path
         style="fill:none;stroke:#000000;stroke-width:6;stroke-linecap:round;stroke-linejoin:round;stroke-miterlimit:4;stroke-dasharray:none"
         d="m 287.78185,2357.0912 27.00822,-6.7531 c 14.39159,20.5977 33.70812,20.7937 52.78288,21.9911 -10.02893,-8.6851 -19.8654,-17.6406 -23.05355,-35.9366 l 34.03027,-44.3842 c -26.41011,0.1427 -44.79023,15.5516 -62.54542,32.1485 L 213.17531,2301.353 c -5.90667,-12.0663 6.01259,-22.6766 19.08587,-33.1927 -34.50625,-4.3019 -54.02834,14.9393 -75.15719,31.6561 -44.10748,0.537 -62.046076,15.4948 -84.901078,27.7433 l 21.522122,23.0539 c 10.095156,-5.7594 21.768456,-4.6432 33.765966,-2.1143"
         id="path946"
         sodipodi:nodetypes="cccccccccccc" />
      <circle
         style="fill:#000000;stroke:none;stroke-width:6;stroke-linecap:round;stroke-linejoin:round;stroke-miterlimit:4;stroke-dasharray:none"
         id="path908-7-9"
         cx="117.19926"
         cy="2326.9448"
         r="3.847333" />
    </g>
  </g>
</svg>
