<?xml version="1.0" encoding="UTF-8" standalone="no"?>
<svg
   xmlns:dc="http://purl.org/dc/elements/1.1/"
   xmlns:cc="http://creativecommons.org/ns#"
   xmlns:rdf="http://www.w3.org/1999/02/22-rdf-syntax-ns#"
   xmlns:svg="http://www.w3.org/2000/svg"
   xmlns="http://www.w3.org/2000/svg"
   xmlns:sodipodi="http://sodipodi.sourceforge.net/DTD/sodipodi-0.dtd"
   xmlns:inkscape="http://www.inkscape.org/namespaces/inkscape"
   width="46.20586mm"
   height="60.080551mm"
   viewBox="0 0 46.20586 60.080551"
   version="1.1"
   id="svg8688"
   inkscape:version="1.0.1 (3bc2e813f5, 2020-09-07)"
   sodipodi:docname="lineart_fox.svg">
  <defs
     id="defs8682" />
  <sodipodi:namedview
     id="base"
     pagecolor="#ffffff"
     bordercolor="#666666"
     borderopacity="1.0"
     inkscape:pageopacity="0.0"
     inkscape:pageshadow="2"
     inkscape:zoom="0.35"
     inkscape:cx="7.3181587"
     inkscape:cy="82.109462"
     inkscape:document-units="mm"
     inkscape:current-layer="layer1"
     inkscape:document-rotation="0"
     showgrid="false"
     inkscape:window-width="1920"
     inkscape:window-height="996"
     inkscape:window-x="1920"
     inkscape:window-y="28"
     inkscape:window-maximized="1" />
  <metadata
     id="metadata8685">
    <rdf:RDF>
      <cc:Work
         rdf:about="">
        <dc:format>image/svg+xml</dc:format>
        <dc:type
           rdf:resource="http://purl.org/dc/dcmitype/StillImage" />
        <dc:title></dc:title>
      </cc:Work>
    </rdf:RDF>
  </metadata>
  <g
     inkscape:label="Layer 1"
     inkscape:groupmode="layer"
     id="layer1"
     transform="translate(-103.89707,-126.44187)">
    <g
       id="g8667"
       transform="matrix(0.26458333,0,0,0.26458333,65.384993,-750.54277)">
      <path
         style="fill:none;stroke:#000000;stroke-width:6;stroke-linecap:round;stroke-linejoin:round;stroke-miterlimit:4;stroke-dasharray:none"
         d="m 185.91788,3374.1282 c -7.08673,3.8702 -14.84202,6.5555 -24.32361,6.1809 -6.61661,-1.9299 -10.90703,-6.4074 -13.03684,-13.2512 4.42399,-6.322 9.9816,-10.6974 16.3743,-13.6389 1.74638,-11.4254 7.40675,-16.8768 15.64044,-18.4005 -0.48178,-5.7014 1.42234,-11.2156 -5.60802,-17.4309 12.88569,0.9313 20.6557,7.8328 25.50361,18.1445 11.4212,4.2874 22.78882,9.1143 30.50695,50.691 l 38.00199,35.3689 c 5.54179,6.4206 10.88581,13.3888 13.37698,28.2542 1.23659,13.4317 4.53181,27.9909 -10.68946,32.4079 H 235.076 c -40.63259,12.7876 -33.30458,33.9822 -20.08127,56.2102 2.31762,-11.9321 10.08625,-20.2282 23.28399,-24.9027 h 50.41876 c 39.60161,0 36.35345,-63.7276 0,-63.7276"
         id="path989"
         sodipodi:nodetypes="cccccccccccccccc" />
      <path
         style="fill:none;stroke:#000000;stroke-width:6;stroke-linecap:round;stroke-linejoin:round;stroke-miterlimit:4;stroke-dasharray:none"
         d="m 245.34602,3450.698 c -9.28057,3.9338 -21.19519,1.7458 -24.13357,20.4196 v 15.8764"
         id="path991"
         sodipodi:nodetypes="ccc" />
      <path
         style="fill:none;stroke:#000000;stroke-width:6;stroke-linecap:round;stroke-linejoin:round;stroke-miterlimit:4;stroke-dasharray:none"
         d="m 203.42767,3507.2535 h -14.98716 c -1.52572,-8.6261 4.78766,-12.8337 9.13566,-18.149 l -2.12397,-46.5162 c -18.46361,-13.8155 -26.33631,-31.0849 -9.94129,-56.2687"
         id="path993"
         sodipodi:nodetypes="ccccc" />
      <circle
         style="fill:#000000;stroke:none;stroke-width:6;stroke-linecap:round;stroke-linejoin:round;stroke-miterlimit:4;stroke-dasharray:none"
         id="path908-7-93"
         cx="182.8093"
         cy="3353.2822"
         r="3.847333" />
    </g>
  </g>
</svg>
