<?xml version="1.0" encoding="UTF-8" standalone="no"?>
<svg
   xmlns:dc="http://purl.org/dc/elements/1.1/"
   xmlns:cc="http://creativecommons.org/ns#"
   xmlns:rdf="http://www.w3.org/1999/02/22-rdf-syntax-ns#"
   xmlns:svg="http://www.w3.org/2000/svg"
   xmlns="http://www.w3.org/2000/svg"
   xmlns:sodipodi="http://sodipodi.sourceforge.net/DTD/sodipodi-0.dtd"
   xmlns:inkscape="http://www.inkscape.org/namespaces/inkscape"
   width="74.2491mm"
   height="51.652496mm"
   viewBox="0 0 74.2491 51.652496"
   version="1.1"
   id="svg8052"
   inkscape:version="1.0.1 (3bc2e813f5, 2020-09-07)"
   sodipodi:docname="lineart_elephant.svg">
  <defs
     id="defs8046" />
  <sodipodi:namedview
     id="base"
     pagecolor="#ffffff"
     bordercolor="#666666"
     borderopacity="1.0"
     inkscape:pageopacity="0.0"
     inkscape:pageshadow="2"
     inkscape:zoom="0.35"
     inkscape:cx="560.31326"
     inkscape:cy="643.3253"
     inkscape:document-units="mm"
     inkscape:current-layer="layer1"
     inkscape:document-rotation="0"
     showgrid="false"
     fit-margin-top="0"
     fit-margin-left="0"
     fit-margin-right="0"
     fit-margin-bottom="0"
     inkscape:window-width="1920"
     inkscape:window-height="996"
     inkscape:window-x="1920"
     inkscape:window-y="28"
     inkscape:window-maximized="1" />
  <metadata
     id="metadata8049">
    <rdf:RDF>
      <cc:Work
         rdf:about="">
        <dc:format>image/svg+xml</dc:format>
        <dc:type
           rdf:resource="http://purl.org/dc/dcmitype/StillImage" />
        <dc:title></dc:title>
      </cc:Work>
    </rdf:RDF>
  </metadata>
  <g
     inkscape:label="Layer 1"
     inkscape:groupmode="layer"
     id="layer1"
     transform="translate(42.416217,22.046486)">
    <g
       id="g8029"
       transform="matrix(0.26458333,0,0,0.26458333,-64.701273,-830.50727)">
      <path
         style="fill:none;stroke:#000000;stroke-width:6;stroke-linecap:round;stroke-linejoin:round;stroke-miterlimit:4;stroke-dasharray:none"
         d="m 122.87061,3185.5014 c 9.1275,14.8022 6.5909,24.2037 -6.5972,24.215 -19.056202,0.016 -40.877902,-25.462 -21.432102,-110.8845 7.693602,-33.797 47.092402,-43.862 79.966902,-39.1201 15.2673,2.2022 27.1637,20.8003 46.2621,16.8032 58.3921,-12.2209 70.6737,-7.2967 94.5569,8.7385 43.7338,29.363 14.6489,89.3993 3.8372,99.6555 -8.0403,7.6272 -14.9403,9.3112 -14.4942,16.826 l 2.6998,45.4726 -39.1946,0.6056 c 2.4305,-14.8957 8.3919,-19.1851 16.1568,-18.0573"
         id="path837-3"
         sodipodi:nodetypes="csssssssccc" />
      <path
         style="fill:none;stroke:#000000;stroke-width:6;stroke-linecap:round;stroke-linejoin:round;stroke-miterlimit:4;stroke-dasharray:none"
         d="m 338.76341,3129.6957 5.3479,59.7802 c 0.6724,7.5153 9.9898,10.3664 17.7422,-1.3327"
         id="path839-6"
         sodipodi:nodetypes="csc" />
      <path
         style="fill:none;stroke:#000000;stroke-width:6;stroke-linecap:round;stroke-linejoin:round;stroke-miterlimit:4;stroke-dasharray:none"
         d="m 116.73681,3146.5505 c 14.1729,-0.9696 21.1781,-10.5041 22.8801,-26.3756 0.9248,19.8435 2.0668,39.3693 16.6508,39.2286 63.5811,-47.6846 47.7832,-61.1784 36.5738,-76.6486"
         id="path843-7"
         sodipodi:nodetypes="cccc" />
      <path
         style="fill:none;stroke:#000000;stroke-width:6;stroke-linecap:round;stroke-linejoin:round;stroke-miterlimit:4;stroke-dasharray:none"
         d="m 170.91621,3230.7158 c -12.5124,-0.3779 -15.0598,6.9952 -14.0871,17.1061 l 37.1462,-0.704 c -3.4189,-11.2963 -10.5679,-23.301 -5.2971,-39.1059 4.7245,-14.1667 11.1482,-29.335 13.2896,-46.8838"
         id="path845-5"
         sodipodi:nodetypes="cccsc" />
      <path
         style="fill:none;stroke:#000000;stroke-width:6;stroke-linecap:round;stroke-linejoin:round;stroke-miterlimit:4;stroke-dasharray:none"
         d="m 200.36401,3174.5716 c 1.8239,17.8696 96.286,8.5029 96.4812,-10.16"
         id="path847-3"
         sodipodi:nodetypes="cc" />
      <circle
         style="fill:#000000;stroke:none;stroke-width:6;stroke-linecap:round;stroke-linejoin:round;stroke-miterlimit:4;stroke-dasharray:none"
         id="path908-7-0"
         cx="114.35297"
         cy="3113.3455"
         r="3.847333" />
    </g>
  </g>
</svg>
