<?xml version="1.0" encoding="UTF-8" standalone="no"?>
<svg
   xmlns:dc="http://purl.org/dc/elements/1.1/"
   xmlns:cc="http://creativecommons.org/ns#"
   xmlns:rdf="http://www.w3.org/1999/02/22-rdf-syntax-ns#"
   xmlns:svg="http://www.w3.org/2000/svg"
   xmlns="http://www.w3.org/2000/svg"
   xmlns:sodipodi="http://sodipodi.sourceforge.net/DTD/sodipodi-0.dtd"
   xmlns:inkscape="http://www.inkscape.org/namespaces/inkscape"
   width="71.525871mm"
   height="35.403751mm"
   viewBox="0 0 71.525871 35.403751"
   version="1.1"
   id="svg9958"
   inkscape:version="1.0.1 (3bc2e813f5, 2020-09-07)"
   sodipodi:docname="lineart_pig.svg">
  <defs
     id="defs9952" />
  <sodipodi:namedview
     id="base"
     pagecolor="#ffffff"
     bordercolor="#666666"
     borderopacity="1.0"
     inkscape:pageopacity="0.0"
     inkscape:pageshadow="2"
     inkscape:zoom="0.35"
     inkscape:cx="795.16699"
     inkscape:cy="289.76187"
     inkscape:document-units="mm"
     inkscape:current-layer="layer1"
     inkscape:document-rotation="0"
     showgrid="false"
     fit-margin-top="0"
     fit-margin-left="0"
     fit-margin-right="0"
     fit-margin-bottom="0"
     inkscape:window-width="1920"
     inkscape:window-height="996"
     inkscape:window-x="1920"
     inkscape:window-y="28"
     inkscape:window-maximized="1" />
  <metadata
     id="metadata9955">
    <rdf:RDF>
      <cc:Work
         rdf:about="">
        <dc:format>image/svg+xml</dc:format>
        <dc:type
           rdf:resource="http://purl.org/dc/dcmitype/StillImage" />
        <dc:title></dc:title>
      </cc:Work>
    </rdf:RDF>
  </metadata>
  <g
     inkscape:label="Layer 1"
     inkscape:groupmode="layer"
     id="layer1"
     transform="translate(104.5546,-71.500505)">
    <g
       id="g9935"
       transform="matrix(0.26458333,0,0,0.26458333,-128.41838,-962.98376)">
      <path
         style="fill:none;stroke:#000000;stroke-width:6;stroke-linecap:round;stroke-linejoin:round;stroke-miterlimit:4;stroke-dasharray:none"
         d="m 171.31074,4040.1034 h -19.62918 c 0.0265,-6.5435 6.04206,-9.8386 11.5367,-13.4163 l 4.87197,-27.2903 h -14.06051 c -23.38547,11.7048 -41.12405,11.4674 -55.017279,3.0978 l -5.818695,-19.2866 c 18.218484,-7.246 17.301534,-13.2683 26.797934,-29.098 l 10.80927,-19.5666 c 69.92509,-26.5519 135.30075,-30.7508 193.82624,-1.2926 13.87271,34.1217 2.79452,46.8019 -7.9356,59.7811"
         id="path1007"
         sodipodi:nodetypes="ccccccccccc" />
      <path
         style="fill:none;stroke:#000000;stroke-width:6;stroke-linecap:round;stroke-linejoin:round;stroke-miterlimit:4;stroke-dasharray:none"
         d="m 332.2875,3956.2803 c 6.75419,15.2546 27.273,4.251 25.07003,-8.9099"
         id="path1009"
         sodipodi:nodetypes="cc" />
      <path
         style="fill:none;stroke:#000000;stroke-width:6;stroke-linecap:round;stroke-linejoin:round;stroke-miterlimit:4;stroke-dasharray:none"
         d="m 270.33296,3956.6957 c 0.62666,14.7014 2.81265,29.3054 15.76168,43.2366 9.66699,7.5418 13.91188,16.1694 17.55312,24.9179 -7.36666,3.3738 -11.7136,8.5053 -12.30793,15.8211 h 16.26608"
         id="path1011"
         sodipodi:nodetypes="ccccc" />
      <path
         style="fill:none;stroke:#000000;stroke-width:6;stroke-linecap:round;stroke-linejoin:round;stroke-miterlimit:4;stroke-dasharray:none"
         d="m 187.87718,4004.1297 c 34.67003,11.0599 67.88274,12.7164 98.21746,-4.1974"
         id="path1013"
         sodipodi:nodetypes="cc" />
      <path
         style="fill:none;stroke:#000000;stroke-width:6;stroke-linecap:round;stroke-linejoin:round;stroke-miterlimit:4;stroke-dasharray:none"
         d="m 174.52117,3941.3757 -0.76375,17.1876 c -0.76368,4.7438 -2.49962,9.0985 -10.62483,11.2664 -5.23176,1.3958 -9.74309,1.4156 -14.18519,-0.9079 -4.21282,-1.7688 -4.65707,-6.6272 -5.5932,-11.0824"
         id="path1015"
         sodipodi:nodetypes="ccscc" />
      <circle
         style="fill:#000000;stroke:none;stroke-width:6;stroke-linecap:round;stroke-linejoin:round;stroke-miterlimit:4;stroke-dasharray:none"
         id="path908-7-06"
         cx="127.56604"
         cy="3975.9932"
         r="3.847333" />
    </g>
  </g>
</svg>
