<?xml version="1.0" encoding="UTF-8" standalone="no"?>
<svg
   xmlns:dc="http://purl.org/dc/elements/1.1/"
   xmlns:cc="http://creativecommons.org/ns#"
   xmlns:rdf="http://www.w3.org/1999/02/22-rdf-syntax-ns#"
   xmlns:svg="http://www.w3.org/2000/svg"
   xmlns="http://www.w3.org/2000/svg"
   xmlns:sodipodi="http://sodipodi.sourceforge.net/DTD/sodipodi-0.dtd"
   xmlns:inkscape="http://www.inkscape.org/namespaces/inkscape"
   width="83.944366mm"
   height="53.19421mm"
   viewBox="0 0 83.944366 53.19421"
   version="1.1"
   id="svg2360"
   inkscape:version="1.0.1 (3bc2e813f5, 2020-09-07)"
   sodipodi:docname="lineart_cow.svg">
  <defs
     id="defs2354" />
  <sodipodi:namedview
     id="base"
     pagecolor="#ffffff"
     bordercolor="#666666"
     borderopacity="1.0"
     inkscape:pageopacity="0.0"
     inkscape:pageshadow="2"
     inkscape:zoom="0.98994949"
     inkscape:cx="352.33162"
     inkscape:cy="92.582107"
     inkscape:document-units="mm"
     inkscape:current-layer="layer1"
     inkscape:document-rotation="0"
     showgrid="false"
     fit-margin-top="0"
     fit-margin-left="0"
     fit-margin-right="0"
     fit-margin-bottom="0"
     inkscape:window-width="1920"
     inkscape:window-height="996"
     inkscape:window-x="1920"
     inkscape:window-y="28"
     inkscape:window-maximized="1" />
  <metadata
     id="metadata2357">
    <rdf:RDF>
      <cc:Work
         rdf:about="">
        <dc:format>image/svg+xml</dc:format>
        <dc:type
           rdf:resource="http://purl.org/dc/dcmitype/StillImage" />
        <dc:title></dc:title>
      </cc:Work>
    </rdf:RDF>
  </metadata>
  <g
     inkscape:label="Layer 1"
     inkscape:groupmode="layer"
     id="layer1"
     transform="translate(-41.938532,-93.599323)">
    <g
       id="g2336"
       transform="matrix(0.26458333,0,0,0.26458333,24.960439,-61.862391)">
      <path
         style="fill:none;stroke:#000000;stroke-width:6;stroke-linecap:round;stroke-linejoin:round;stroke-miterlimit:4;stroke-dasharray:none"
         d="m 378.41088,733.13177 c 0.9313,14.4132 -18.91937,15.01206 -17.81553,0 -0.32037,-23.00558 2.44196,-33.69813 4.76574,-44.36829 l 6.63627,-30.47185 c 0.0871,-38.90228 -40.40164,-40.07678 -54.16276,-41.14625 -65.05045,1.88685 -151.89667,19.60847 -178.05239,-6.76194"
         id="path870"
         sodipodi:nodetypes="ccsccc" />
      <path
         style="fill:none;stroke:#000000;stroke-width:6;stroke-linecap:round;stroke-linejoin:round;stroke-miterlimit:4;stroke-dasharray:none"
         d="m 131.62172,614.79569 c 30.84008,-17.22444 -0.76592,-33.57763 -10.96555,-17.89812 -3.5911,1.58824 -6.91617,3.25229 -18.61581,2.52997 l -34.871191,41.81785 c 0.856428,26.99277 14.840884,24.66936 29.422213,21.01307 l 18.000458,-1.2352 c 15.17171,-2.5551 20.69446,5.573 25.66594,14.31148 3.1126,12.20897 4.58522,23.98819 39.09873,44.42562 l 1.28578,48.74981 c -7.243,5.37093 -11.12996,10.99609 -11.89753,16.85753 h 16.17765"
         id="path872"
         sodipodi:nodetypes="ccccccccccc" />
      <path
         style="fill:none;stroke:#000000;stroke-width:6;stroke-linecap:round;stroke-linejoin:round;stroke-miterlimit:4;stroke-dasharray:none"
         d="m 200.97436,711.78006 c 23.43946,1.6808 50.61655,7.32584 84.02533,19.5804 21.5235,2.91876 32.55577,0.13941 42.59955,-12.97744"
         id="path874"
         sodipodi:nodetypes="ccc" />
      <path
         style="fill:none;stroke:#000000;stroke-width:6;stroke-linecap:round;stroke-linejoin:round;stroke-miterlimit:4;stroke-dasharray:none"
         d="M 291.65657,732.89964 V 742.9336"
         id="path876"
         sodipodi:nodetypes="cc" />
      <path
         style="fill:none;stroke:#000000;stroke-width:6;stroke-linecap:round;stroke-linejoin:round;stroke-miterlimit:4;stroke-dasharray:none"
         d="m 303.39639,733.33998 v 10.02368"
         id="path878"
         sodipodi:nodetypes="cc" />
      <path
         style="fill:none;stroke:#000000;stroke-width:6;stroke-linecap:round;stroke-linejoin:round;stroke-miterlimit:4;stroke-dasharray:none"
         d="m 299.65771,685.57475 c 5.3129,9.47051 8.50687,16.32993 27.52735,27.85679 4.19485,2.54218 7.43436,5.32237 8.67275,13.83752 v 42.71433 c -6.95796,2.50236 -11.22256,8.42312 -12.44381,15.63744 h 17.41691"
         id="path880"
         sodipodi:nodetypes="cscccc" />
      <circle
         style="fill:#000000;stroke:none;stroke-width:6;stroke-linecap:round;stroke-linejoin:round;stroke-miterlimit:4;stroke-dasharray:none"
         id="path908-6"
         cx="102.54398"
         cy="626.2793"
         r="3.847333" />
    </g>
  </g>
</svg>
