<?xml version="1.0" encoding="UTF-8" standalone="no"?>
<svg
   xmlns:dc="http://purl.org/dc/elements/1.1/"
   xmlns:cc="http://creativecommons.org/ns#"
   xmlns:rdf="http://www.w3.org/1999/02/22-rdf-syntax-ns#"
   xmlns:svg="http://www.w3.org/2000/svg"
   xmlns="http://www.w3.org/2000/svg"
   xmlns:sodipodi="http://sodipodi.sourceforge.net/DTD/sodipodi-0.dtd"
   xmlns:inkscape="http://www.inkscape.org/namespaces/inkscape"
   width="69.577255mm"
   height="36.907539mm"
   viewBox="0 0 69.577255 36.907539"
   version="1.1"
   id="svg4267"
   inkscape:version="1.0.1 (3bc2e813f5, 2020-09-07)"
   sodipodi:docname="lineart_rhino.svg">
  <defs
     id="defs4261" />
  <sodipodi:namedview
     id="base"
     pagecolor="#ffffff"
     bordercolor="#666666"
     borderopacity="1.0"
     inkscape:pageopacity="0.0"
     inkscape:pageshadow="2"
     inkscape:zoom="1.979899"
     inkscape:cx="120.37688"
     inkscape:cy="66.780511"
     inkscape:document-units="mm"
     inkscape:current-layer="layer1"
     inkscape:document-rotation="0"
     showgrid="false"
     fit-margin-top="0"
     fit-margin-left="0"
     fit-margin-right="0"
     fit-margin-bottom="0"
     inkscape:window-width="1920"
     inkscape:window-height="996"
     inkscape:window-x="1920"
     inkscape:window-y="28"
     inkscape:window-maximized="1" />
  <metadata
     id="metadata4264">
    <rdf:RDF>
      <cc:Work
         rdf:about="">
        <dc:format>image/svg+xml</dc:format>
        <dc:type
           rdf:resource="http://purl.org/dc/dcmitype/StillImage" />
        <dc:title></dc:title>
      </cc:Work>
    </rdf:RDF>
  </metadata>
  <g
     inkscape:label="Layer 1"
     inkscape:groupmode="layer"
     id="layer1"
     transform="translate(-3.0089898,-109.30218)">
    <g
       id="g4243"
       transform="matrix(0.26458333,0,0,0.26458333,-20.540781,-271.70269)">
      <path
         style="fill:none;stroke:#000000;stroke-width:6;stroke-linecap:round;stroke-linejoin:round;stroke-miterlimit:4;stroke-dasharray:none"
         d="m 178.10852,1525.5992 -5.36906,8.5178 -40.90915,16.4248 c -11.69722,-2.8462 -20.09192,-8.8518 -18.63506,-24.2821 l 35.64765,-46.1816 c 0.29249,-18.9816 11.21226,-16.4801 24.62091,-8.9473 13.9989,-8.6047 17.80364,-21.6713 53.39475,-20.8253 l 28.30546,-0.2909 c 7.18078,-4.0659 12.53356,-10.7131 27.01053,-4.4761 7.38995,7.8732 18.87647,8.3 31.87968,5.97 39.13136,21.1289 35.76572,47.5867 27.15935,74.7017 -9.19808,8.4359 -21.51579,15.3252 -17.89592,30.1159 l -0.088,20.1854 h -35.75309 c -1.56344,-12.5512 2.98961,-18.374 13.30252,-17.8607"
         id="path918"
         sodipodi:nodetypes="ccccccccccccccc" />
      <path
         style="fill:none;stroke:#000000;stroke-width:6;stroke-linecap:round;stroke-linejoin:round;stroke-miterlimit:4;stroke-dasharray:none"
         d="m 173.22093,1500.0989 c -1.1019,18.4064 5.51842,29.4227 21.36034,31.6139"
         id="path920"
         sodipodi:nodetypes="cc" />
      <path
         style="fill:none;stroke:#000000;stroke-width:6;stroke-linecap:round;stroke-linejoin:round;stroke-miterlimit:4;stroke-dasharray:none"
         d="m 200.29202,1558.5499 c -15.99336,0.428 -14.30294,9.0654 -13.95132,17.0813 h 36.28953 c -3.48072,-13.9507 -5.28788,-26.1109 -1.63283,-32.427 6.03587,-11.6019 14.25529,-24.0865 12.56472,-32.5645"
         id="path924"
         sodipodi:nodetypes="ccccc" />
      <path
         style="fill:none;stroke:#000000;stroke-width:6;stroke-linecap:round;stroke-linejoin:round;stroke-miterlimit:4;stroke-dasharray:none"
         d="m 228.72822,1533.9444 31.66237,5.1448 c 25.55028,3.0543 44.80109,-6.6537 46.35962,-32.9031 l 0.96139,-16.1922"
         id="path926"
         sodipodi:nodetypes="ccsc" />
      <path
         style="fill:none;stroke:#000000;stroke-width:6;stroke-linecap:round;stroke-linejoin:round;stroke-miterlimit:4;stroke-dasharray:none"
         d="m 115.33514,1520.9188 c -24.925782,-13.174 -22.976737,-28.4538 -23.32817,-44.8192 5.624783,15.6346 14.41398,27.1207 37.814,27.1214"
         id="path928"
         sodipodi:nodetypes="ccc" />
      <path
         style="fill:none;stroke:#000000;stroke-width:6;stroke-linecap:round;stroke-linejoin:round;stroke-miterlimit:4;stroke-dasharray:none"
         d="m 339.77442,1473.0741 c 6.67866,-3.5917 10.01557,-7.7221 9.05322,-12.5454"
         id="path956"
         sodipodi:nodetypes="cc" />
      <circle
         style="fill:#000000;stroke:none;stroke-width:6;stroke-linecap:round;stroke-linejoin:round;stroke-miterlimit:4;stroke-dasharray:none"
         id="path908-7-3"
         cx="145.41013"
         cy="1510.5426"
         r="3.847333" />
    </g>
  </g>
</svg>
