<?xml version="1.0" encoding="UTF-8" standalone="no"?>
<svg
   xmlns:dc="http://purl.org/dc/elements/1.1/"
   xmlns:cc="http://creativecommons.org/ns#"
   xmlns:rdf="http://www.w3.org/1999/02/22-rdf-syntax-ns#"
   xmlns:svg="http://www.w3.org/2000/svg"
   xmlns="http://www.w3.org/2000/svg"
   xmlns:sodipodi="http://sodipodi.sourceforge.net/DTD/sodipodi-0.dtd"
   xmlns:inkscape="http://www.inkscape.org/namespaces/inkscape"
   width="41.616909mm"
   height="45.553638mm"
   viewBox="0 0 41.616909 45.553638"
   version="1.1"
   id="svg1736"
   inkscape:version="1.0.1 (3bc2e813f5, 2020-09-07)"
   sodipodi:docname="lineart_cat.svg">
  <defs
     id="defs1730" />
  <sodipodi:namedview
     id="base"
     pagecolor="#ffffff"
     bordercolor="#666666"
     borderopacity="1.0"
     inkscape:pageopacity="0.0"
     inkscape:pageshadow="2"
     inkscape:zoom="1.979899"
     inkscape:cx="104.09795"
     inkscape:cy="11.496144"
     inkscape:document-units="mm"
     inkscape:current-layer="layer1"
     inkscape:document-rotation="0"
     showgrid="false"
     fit-margin-top="0"
     fit-margin-left="0"
     fit-margin-right="0"
     fit-margin-bottom="0"
     inkscape:window-width="1920"
     inkscape:window-height="996"
     inkscape:window-x="1920"
     inkscape:window-y="28"
     inkscape:window-maximized="1" />
  <metadata
     id="metadata1733">
    <rdf:RDF>
      <cc:Work
         rdf:about="">
        <dc:format>image/svg+xml</dc:format>
        <dc:type
           rdf:resource="http://purl.org/dc/dcmitype/StillImage" />
        <dc:title></dc:title>
      </cc:Work>
    </rdf:RDF>
  </metadata>
  <g
     inkscape:label="Layer 1"
     inkscape:groupmode="layer"
     id="layer1"
     transform="translate(306.55846,180.01491)">
    <g
       id="g1716"
       transform="matrix(0.26458333,0,0,0.26458333,-348.09991,-266.37719)">
      <path
         style="fill:none;stroke:#000000;stroke-width:6;stroke-linecap:round;stroke-linejoin:round;stroke-miterlimit:4;stroke-dasharray:none"
         d="m 295.40933,472.1533 c 21.49359,0 20.87761,23.42655 0,23.42655 h -121.9686 c -0.73204,-14.74734 7.52681,-14.66837 12.92336,-19.30945 -2.48743,-38.17717 20.45962,-92.94245 -0.15696,-91.12497 -17.01791,-3.25679 -24.69959,-2.60184 -26.20009,-21.84417 5.59696,-0.95221 10.8885,-2.2178 12.56009,-7.19768 3.69825,-13.15674 11.51544,-10.60559 18.1738,-12.47369 v -14.22134 c 11.87481,2.45623 13.89722,9.71604 16.02366,16.92512 13.53181,0.91565 13.82148,23.9832 18.6214,39.50584 7.28031,10.51705 14.63553,15.37194 21.9866,20.53989 21.97526,35.57876 21.63287,61.97159 11.9733,87.9758"
         id="path837"
         sodipodi:nodetypes="ccccccccccccc" />
      <path
         style="fill:none;stroke:#000000;stroke-width:6;stroke-linecap:round;stroke-linejoin:round;stroke-miterlimit:4;stroke-dasharray:none"
         d="m 233.3422,431.56982 c -9.75096,2.5943 -20.83025,1.42928 -25.13927,19.42481 v 25.6728 c -6.39196,4.09185 -12.77907,8.08493 -11.71503,17.85935"
         id="path839"
         sodipodi:nodetypes="cccc" />
      <circle
         style="fill:#000000;stroke:none;stroke-width:6;stroke-linecap:round;stroke-linejoin:round;stroke-miterlimit:4;stroke-dasharray:none"
         id="path908-3"
         cx="186.94572"
         cy="361.0238"
         r="3.847333" />
    </g>
  </g>
</svg>
