<?xml version="1.0" encoding="UTF-8" standalone="no"?>
<svg
   xmlns:dc="http://purl.org/dc/elements/1.1/"
   xmlns:cc="http://creativecommons.org/ns#"
   xmlns:rdf="http://www.w3.org/1999/02/22-rdf-syntax-ns#"
   xmlns:svg="http://www.w3.org/2000/svg"
   xmlns="http://www.w3.org/2000/svg"
   xmlns:sodipodi="http://sodipodi.sourceforge.net/DTD/sodipodi-0.dtd"
   xmlns:inkscape="http://www.inkscape.org/namespaces/inkscape"
   width="61.57634mm"
   height="37.224323mm"
   viewBox="0 0 61.57634 37.224323"
   version="1.1"
   id="svg4899"
   inkscape:version="1.0.1 (3bc2e813f5, 2020-09-07)"
   sodipodi:docname="lineart_swan.svg">
  <defs
     id="defs4893" />
  <sodipodi:namedview
     id="base"
     pagecolor="#ffffff"
     bordercolor="#666666"
     borderopacity="1.0"
     inkscape:pageopacity="0.0"
     inkscape:pageshadow="2"
     inkscape:zoom="1.979899"
     inkscape:cx="128.45596"
     inkscape:cy="87.10675"
     inkscape:document-units="mm"
     inkscape:current-layer="layer1"
     inkscape:document-rotation="0"
     showgrid="false"
     fit-margin-top="0"
     fit-margin-left="0"
     fit-margin-right="0"
     fit-margin-bottom="0"
     inkscape:window-width="1920"
     inkscape:window-height="996"
     inkscape:window-x="1920"
     inkscape:window-y="28"
     inkscape:window-maximized="1" />
  <metadata
     id="metadata4896">
    <rdf:RDF>
      <cc:Work
         rdf:about="">
        <dc:format>image/svg+xml</dc:format>
        <dc:type
           rdf:resource="http://purl.org/dc/dcmitype/StillImage" />
        <dc:title></dc:title>
      </cc:Work>
    </rdf:RDF>
  </metadata>
  <g
     inkscape:label="Layer 1"
     inkscape:groupmode="layer"
     id="layer1"
     transform="translate(-56.902306,-104.60808)">
    <g
       id="g4880"
       transform="matrix(0.26458333,0,0,0.26458333,27.467017,-348.73769)">
      <path
         style="fill:none;stroke:#000000;stroke-width:6;stroke-linecap:round;stroke-linejoin:round;stroke-miterlimit:4;stroke-dasharray:none"
         d="m 191.65785,1830.5952 31.93872,-1.8784 c 25.07826,-1.4749 52.0322,-21.0134 68.72805,-19.5548 37.80648,3.3029 35.68351,-5.6749 48.65789,-10.2796 -28.42453,0.5824 -39.52025,-13.3276 -57.91963,-21.1294 -48.51321,-20.2038 -83.11176,-1.4339 -114.47347,26.4021 0.44374,-27.0157 24.02014,-52.2175 1.3572,-79.2591 -8.20552,-9.7909 -25.25821,-9.2666 -34.23518,-7.3014 -20.12827,4.4063 -27.08658,20.7854 -16.64141,40.3967 l 2.17239,29.285 27.49136,-39.2801 c 7.43151,-9.2127 20.71333,-1.0286 12.55815,11.6906 l -25.21797,39.0934 c -12.20096,27.8453 -14.73113,50.058 16.95348,52.343 h 117.17336 c 40.04245,-3.6105 45.34216,-18.3363 56.74605,-31.1092"
         id="path930"
         sodipodi:nodetypes="csscccsscccccccc" />
      <circle
         style="fill:#000000;stroke:none;stroke-width:6;stroke-linecap:round;stroke-linejoin:round;stroke-miterlimit:4;stroke-dasharray:none"
         id="path908-7-56"
         cx="131.65988"
         cy="1741.6853"
         r="3.847333" />
    </g>
  </g>
</svg>
