<?xml version="1.0" encoding="UTF-8" standalone="no"?>
<svg
   xmlns:dc="http://purl.org/dc/elements/1.1/"
   xmlns:cc="http://creativecommons.org/ns#"
   xmlns:rdf="http://www.w3.org/1999/02/22-rdf-syntax-ns#"
   xmlns:svg="http://www.w3.org/2000/svg"
   xmlns="http://www.w3.org/2000/svg"
   xmlns:sodipodi="http://sodipodi.sourceforge.net/DTD/sodipodi-0.dtd"
   xmlns:inkscape="http://www.inkscape.org/namespaces/inkscape"
   width="76.895958mm"
   height="41.980877mm"
   viewBox="0 0 76.895958 41.980877"
   version="1.1"
   id="svg3002"
   inkscape:version="1.0.1 (3bc2e813f5, 2020-09-07)"
   sodipodi:docname="lineart_polarbear.svg">
  <defs
     id="defs2996" />
  <sodipodi:namedview
     id="base"
     pagecolor="#ffffff"
     bordercolor="#666666"
     borderopacity="1.0"
     inkscape:pageopacity="0.0"
     inkscape:pageshadow="2"
     inkscape:zoom="0.35"
     inkscape:cx="565.31519"
     inkscape:cy="402.19108"
     inkscape:document-units="mm"
     inkscape:current-layer="layer1"
     inkscape:document-rotation="0"
     showgrid="false"
     fit-margin-top="0"
     fit-margin-left="0"
     fit-margin-right="0"
     fit-margin-bottom="0"
     inkscape:window-width="1920"
     inkscape:window-height="996"
     inkscape:window-x="1920"
     inkscape:window-y="28"
     inkscape:window-maximized="1" />
  <metadata
     id="metadata2999">
    <rdf:RDF>
      <cc:Work
         rdf:about="">
        <dc:format>image/svg+xml</dc:format>
        <dc:type
           rdf:resource="http://purl.org/dc/dcmitype/StillImage" />
        <dc:title></dc:title>
      </cc:Work>
    </rdf:RDF>
  </metadata>
  <g
     inkscape:label="Layer 1"
     inkscape:groupmode="layer"
     id="layer1"
     transform="translate(43.739644,-41.75361)">
    <g
       id="g2966"
       transform="matrix(0.26458333,0,0,0.26458333,-63.550576,-191.8195)">
      <path
         style="fill:none;stroke:#000000;stroke-width:6;stroke-linecap:round;stroke-linejoin:round;stroke-miterlimit:4;stroke-dasharray:none"
         d="m 225.82407,980.24389 c 97.16722,26.85281 88.84702,-15.35666 95.86243,-32.59681"
         id="path900"
         sodipodi:nodetypes="cc" />
      <path
         style="fill:none;stroke:#000000;stroke-width:6;stroke-linecap:round;stroke-linejoin:round;stroke-miterlimit:4;stroke-dasharray:none"
         d="m 233.71343,955.76292 c 2.4819,13.77209 -7.83989,23.09033 -15.37332,33.37852 -4.86159,12.21016 -2.02947,32.58346 -2.62259,49.32246 l -44.27226,-0.2922 c -0.0891,-9.5865 1.96317,-17.3883 13.20258,-17.5337"
         id="path902"
         sodipodi:nodetypes="ccccc" />
      <path
         style="fill:none;stroke:#000000;stroke-width:6;stroke-linecap:round;stroke-linejoin:round;stroke-miterlimit:4;stroke-dasharray:none"
         d="m 319.38316,1021.3688 c -10.58526,-0.3141 -15.31068,5.0223 -13.60781,16.5574 l 44.09149,0.5103 c -2.24003,-13.6277 -8.14558,-24.8865 -2.52325,-43.59534 14.67297,-35.10228 44.99324,-97.60554 -66.0117,-108.42601 -55.75823,-5.43517 -75.60236,26.52545 -129.0959,22.2636 -8.98075,-14.99994 -14.64388,-6.32219 -20.31448,2.30224 l -17.09048,-0.82037 c -6.94541,5.17584 -11.74649,13.25763 -16.006094,22.07321 l -20.912288,13.9454 c -0.83001,14.03943 11.308848,18.79359 23.765952,23.3199 22.33619,-8.58161 42.29331,-5.42621 63.34775,-7.68441"
         id="path904"
         sodipodi:nodetypes="ccccsccccccc" />
      <path
         style="fill:none;stroke:#000000;stroke-width:6;stroke-linecap:round;stroke-linejoin:round;stroke-miterlimit:4;stroke-dasharray:none"
         d="m 163.90173,944.31136 c -0.95359,20.34178 6.63249,33.09444 25.34483,35.95932"
         id="path906"
         sodipodi:nodetypes="cc" />
      <circle
         style="fill:#000000;stroke:none;stroke-width:6;stroke-linecap:round;stroke-linejoin:round;stroke-miterlimit:4;stroke-dasharray:none"
         id="path908-7"
         cx="118.69732"
         cy="935.5462"
         r="3.847333" />
    </g>
  </g>
</svg>
