<?xml version="1.0" encoding="UTF-8" standalone="no"?>
<svg
   xmlns:dc="http://purl.org/dc/elements/1.1/"
   xmlns:cc="http://creativecommons.org/ns#"
   xmlns:rdf="http://www.w3.org/1999/02/22-rdf-syntax-ns#"
   xmlns:svg="http://www.w3.org/2000/svg"
   xmlns="http://www.w3.org/2000/svg"
   xmlns:sodipodi="http://sodipodi.sourceforge.net/DTD/sodipodi-0.dtd"
   xmlns:inkscape="http://www.inkscape.org/namespaces/inkscape"
   width="73.232513mm"
   height="49.573944mm"
   viewBox="0 0 73.232513 49.573944"
   version="1.1"
   id="svg1097"
   inkscape:version="1.0.1 (3bc2e813f5, 2020-09-07)"
   sodipodi:docname="lineart_lion.svg">
  <defs
     id="defs1091" />
  <sodipodi:namedview
     id="base"
     pagecolor="#ffffff"
     bordercolor="#666666"
     borderopacity="1.0"
     inkscape:pageopacity="0.0"
     inkscape:pageshadow="2"
     inkscape:zoom="0.35"
     inkscape:cx="389.82072"
     inkscape:cy="450.8259"
     inkscape:document-units="mm"
     inkscape:current-layer="layer1"
     inkscape:document-rotation="0"
     showgrid="false"
     fit-margin-top="0"
     fit-margin-left="0"
     fit-margin-right="0"
     fit-margin-bottom="0"
     inkscape:window-width="1920"
     inkscape:window-height="996"
     inkscape:window-x="1920"
     inkscape:window-y="28"
     inkscape:window-maximized="1" />
  <metadata
     id="metadata1094">
    <rdf:RDF>
      <cc:Work
         rdf:about="">
        <dc:format>image/svg+xml</dc:format>
        <dc:type
           rdf:resource="http://purl.org/dc/dcmitype/StillImage" />
        <dc:title></dc:title>
      </cc:Work>
    </rdf:RDF>
  </metadata>
  <g
     inkscape:label="Layer 1"
     inkscape:groupmode="layer"
     id="layer1"
     transform="translate(-2.6932667,-28.885647)">
    <g
       id="g1071"
       transform="matrix(0.26458333,0,0,0.26458333,-20.865911,16.648458)">
      <path
         style="fill:none;stroke:#000000;stroke-width:6;stroke-linecap:round;stroke-linejoin:round;stroke-miterlimit:4;stroke-dasharray:none"
         d="m 327.82056,173.22793 c -3.43668,3.04315 -5.95015,-59.78668 -4.54491,-61.50599 C 315.50267,99.452017 305.3243,95.908502 294.62107,94.269078 l -85.90509,4.767766"
         id="path843"
         sodipodi:nodetypes="cccc" />
      <path
         style="fill:none;stroke:#000000;stroke-width:6;stroke-linecap:round;stroke-linejoin:round;stroke-miterlimit:4;stroke-dasharray:none"
         d="m 323.27565,111.72194 c 7.02162,0.14678 13.11045,1.63662 15.03091,9.12821 3.88106,25.62817 1.07936,60.90741 24.52031,58.28766"
         id="path845"
         sodipodi:nodetypes="ccc" />
      <path
         style="fill:none;stroke:#000000;stroke-width:6;stroke-linecap:round;stroke-linejoin:round;stroke-miterlimit:4;stroke-dasharray:none"
         d="m 333.53918,230.24356 h -32.5783 c 2.07259,-9.18302 7.23851,-15.94736 18.3347,-18.07477 5.60505,-16.1376 -9.78348,-23.40012 -19.75315,-32.95348 -11.94636,-24.46923 -22.16938,-26.1656 -32.34476,-27.23258"
         id="path847"
         sodipodi:nodetypes="ccccc" />
      <path
         style="fill:none;stroke:#000000;stroke-width:6;stroke-linecap:round;stroke-linejoin:round;stroke-miterlimit:4;stroke-dasharray:none"
         d="M 284.96105,160.01378 C 249.167,176.52715 215.01554,196.31432 181.2661,170.70134"
         id="path849"
         sodipodi:nodetypes="cc" />
      <path
         style="fill:none;stroke:#000000;stroke-width:6;stroke-linecap:round;stroke-linejoin:round;stroke-miterlimit:4;stroke-dasharray:none"
         d="m 170.5286,230.61688 h -33.06438 c 1.59164,-8.28491 5.75674,-15.23848 18.66031,-17.67128 5.21647,-11.407 3.9603,-24.57053 3.74948,-37.45038 -13.86603,-20.92811 -9.90806,-35.22993 -3.08106,-48.46515"
         id="path851"
         sodipodi:nodetypes="ccccc" />
      <path
         style="fill:none;stroke:#000000;stroke-width:6;stroke-linecap:round;stroke-linejoin:round;stroke-miterlimit:4;stroke-dasharray:none"
         d="m 156.08242,169.21363 c -15.93073,-8.37615 -33.85956,-14.97983 -13.11339,-55.89122 6.00812,-5.6045 5.52986,-14.36902 5.0335,-23.142354"
         id="path853"
         sodipodi:nodetypes="ccc" />
      <path
         style="fill:none;stroke:#000000;stroke-width:6;stroke-linecap:round;stroke-linejoin:round;stroke-miterlimit:4;stroke-dasharray:none"
         d="m 146.66996,65.288404 c 9.79688,0.219395 11.91915,5.10651 12.71659,10.799383"
         id="path855"
         sodipodi:nodetypes="cc" />
      <path
         style="fill:none;stroke:#000000;stroke-width:6;stroke-linecap:round;stroke-linejoin:round;stroke-miterlimit:4;stroke-dasharray:none"
         d="m 132.07363,114.77685 c -0.84359,1.7711 -23.14955,9.24144 -24.79967,6.38632 -3.68404,-2.09749 -5.7035,-7.53685 -7.592548,-13.23803 -3.505255,-1.71054 -6.06605,-4.66577 -7.638874,-8.923025 3.976902,-8.589616 9.057662,-14.116097 14.067332,-19.839861 l 0.23867,-9.009563 c 21.5016,-18.04948 35.56641,-21.164607 47.94157,-20.886633 29.15672,7.499033 45.7941,23.784535 54.03995,45.959482 2.57451,8.37258 1.06334,14.5144 -1.22362,20.23264 -8.0907,9.38837 -14.7854,18.48271 -13.34823,25.86429 -10.88324,-2.90248 -15.76035,-10.36628 -11.26513,-24.94786"
         id="path857"
         sodipodi:nodetypes="ccccccccccc" />
      <circle
         style="fill:#000000;stroke:none;stroke-width:6;stroke-linecap:round;stroke-linejoin:round;stroke-miterlimit:4;stroke-dasharray:none"
         id="path908"
         cx="122.42954"
         cy="83.740547"
         r="3.847333" />
    </g>
  </g>
</svg>
