<?xml version="1.0" encoding="UTF-8" standalone="no"?>
<!-- Created with Inkscape (http://www.inkscape.org/) -->

<svg
   xmlns:dc="http://purl.org/dc/elements/1.1/"
   xmlns:cc="http://creativecommons.org/ns#"
   xmlns:rdf="http://www.w3.org/1999/02/22-rdf-syntax-ns#"
   xmlns:svg="http://www.w3.org/2000/svg"
   xmlns="http://www.w3.org/2000/svg"
   xmlns:sodipodi="http://sodipodi.sourceforge.net/DTD/sodipodi-0.dtd"
   xmlns:inkscape="http://www.inkscape.org/namespaces/inkscape"
   version="1.1"
   id="svg2"
   width="516.45764"
   height="676.57751"
   viewBox="0 0 516.45764 676.57751"
   sodipodi:docname="owl.svg"
   inkscape:version="0.92.5 (2060ec1f9f, 2020-04-08)">
  <metadata
     id="metadata8">
    <rdf:RDF>
      <cc:Work
         rdf:about="">
        <dc:format>image/svg+xml</dc:format>
        <dc:type
           rdf:resource="http://purl.org/dc/dcmitype/StillImage" />
        <dc:title></dc:title>
      </cc:Work>
    </rdf:RDF>
  </metadata>
  <defs
     id="defs6" />
  <sodipodi:namedview
     pagecolor="#ffffff"
     bordercolor="#666666"
     borderopacity="1"
     objecttolerance="10"
     gridtolerance="10"
     guidetolerance="10"
     inkscape:pageopacity="0"
     inkscape:pageshadow="2"
     inkscape:window-width="1920"
     inkscape:window-height="996"
     id="namedview4"
     showgrid="false"
     inkscape:zoom="0.61429902"
     inkscape:cx="359.48967"
     inkscape:cy="173.22845"
     inkscape:window-x="1920"
     inkscape:window-y="28"
     inkscape:window-maximized="1"
     inkscape:current-layer="svg2"
     fit-margin-top="0"
     fit-margin-left="0"
     fit-margin-right="0"
     fit-margin-bottom="0" />
  <path
     style="opacity:1;fill:#000000;fill-opacity:0.98529412;stroke:none;stroke-width:1;stroke-linecap:round;stroke-linejoin:round;stroke-miterlimit:4;stroke-dasharray:none;stroke-dashoffset:0;stroke-opacity:1"
     d="M 31.43943,5.25153 C 22.95392,149.11936 20.95153,280.83135 72.95016,311.29142 47.17037,355.12668 0,418.16795 0,484.83346 0,541.05082 16.0644,592.90592 73.41221,646.90647 l 1.15108,-42.58992 c 156.99498,115.06728 267.06938,73.73258 369.49638,6.90647 l 4.6043,34.53238 c 49.8814,-90.78846 124.2167,-169.93223 -1.151,-344.17266 C 482.79247,281.93365 500.84507,213.83343 467.08127,0 378.37557,60.20727 293.53007,124.40789 31.43943,5.25153 Z"
     id="path817"
     inkscape:connector-curvature="0"
     sodipodi:nodetypes="ccsccccccc" />
  <path
     style="opacity:1;fill:#ffffff;fill-opacity:0.98529412;stroke:none;stroke-width:1;stroke-linecap:round;stroke-linejoin:round;stroke-miterlimit:4;stroke-dasharray:none;stroke-dashoffset:0;stroke-opacity:1"
     d="M 90.04282,362.16241 C 5.36106,457.61416 33.45708,510.39323 66.84564,561.16972 59.54946,532.97726 52.2492,502.35077 55.04358,461.46258 c 2.79438,-40.8882 20.36259,-67.68523 34.99924,-99.30017 z"
     id="path830"
     inkscape:connector-curvature="0"
     sodipodi:nodetypes="cczc" />
  <path
     style="opacity:1;fill:#ffffff;fill-opacity:0.98529412;stroke:none;stroke-width:1;stroke-linecap:round;stroke-linejoin:round;stroke-miterlimit:4;stroke-dasharray:none;stroke-dashoffset:0;stroke-opacity:1"
     d="m 428.64017,369.48783 c 26.7483,21.67279 48.5188,46.46742 52.0919,102.55592 3.573,56.08849 -18.0626,79.18828 -37.0341,101.74198 12.5976,-34.17096 25.5989,-69.36485 19.5344,-111.91618 -6.0644,-42.55133 -19.1361,-65.51315 -34.5922,-92.38172 z"
     id="path832"
     inkscape:connector-curvature="0"
     sodipodi:nodetypes="czczc" />
  <ellipse
     style="opacity:1;fill:none;fill-opacity:0.98529412;stroke:#ffffff;stroke-width:20;stroke-linecap:round;stroke-linejoin:round;stroke-miterlimit:4;stroke-dasharray:none;stroke-dashoffset:0;stroke-opacity:1"
     id="path834"
     cx="176.32005"
     cy="185.9453"
     rx="61.859127"
     ry="74.882103" />
  <ellipse
     style="opacity:1;fill:none;fill-opacity:0.98529412;stroke:#ffffff;stroke-width:20;stroke-linecap:round;stroke-linejoin:round;stroke-miterlimit:4;stroke-dasharray:none;stroke-dashoffset:0;stroke-opacity:1"
     id="path834-3"
     cx="336.66541"
     cy="192.04982"
     rx="61.859127"
     ry="74.882103" />
  <path
     style="opacity:1;fill:#ffffff;fill-opacity:0.98529412;stroke:none;stroke-width:1;stroke-linecap:round;stroke-linejoin:round;stroke-miterlimit:4;stroke-dasharray:none;stroke-dashoffset:0;stroke-opacity:1"
     d="m 200.73807,260.82739 48.8362,81.39358 48.0222,-86.27719 -12.209,-17.49962 -38.255,71.62635 -35.4062,-58.60339 z"
     id="path851"
     inkscape:connector-curvature="0" />
  <path
     style="opacity:1;fill:#ffffff;fill-opacity:0.98529412;stroke:none;stroke-width:1;stroke-linecap:round;stroke-linejoin:round;stroke-miterlimit:4;stroke-dasharray:none;stroke-dashoffset:0;stroke-opacity:1"
     d="m 144.49838,368.07801 c -5.25083,38.89191 13.75719,49.6392 32.66189,47.76978 27.5465,-5.3651 42.7939,-30.45038 24.3165,-52.3741 -0.1405,13.39083 1.8263,40.93436 -23.4532,41.29496 -25.27957,0.36061 -28.34647,-8.06166 -33.52519,-36.69064 z"
     id="path853"
     inkscape:connector-curvature="0"
     sodipodi:nodetypes="ccczc" />
  <path
     style="opacity:1;fill:#ffffff;fill-opacity:0.98529412;stroke:none;stroke-width:1;stroke-linecap:round;stroke-linejoin:round;stroke-miterlimit:4;stroke-dasharray:none;stroke-dashoffset:0;stroke-opacity:1"
     d="m 220.34677,365.71106 c -5.2509,38.89191 13.7572,49.63921 32.6618,47.76978 27.5466,-5.3651 42.7939,-30.45038 24.3166,-52.3741 -0.1405,13.39083 1.8263,40.93436 -23.4532,41.29496 -25.2796,0.36061 -28.3465,-8.06166 -33.5252,-36.69064 z"
     id="path853-2"
     inkscape:connector-curvature="0"
     sodipodi:nodetypes="ccczc" />
  <path
     style="opacity:1;fill:#ffffff;fill-opacity:0.98529412;stroke:none;stroke-width:1;stroke-linecap:round;stroke-linejoin:round;stroke-miterlimit:4;stroke-dasharray:none;stroke-dashoffset:0;stroke-opacity:1"
     d="m 296.19517,365.63929 c -5.2508,38.89191 13.7572,49.63921 32.6619,47.76978 27.5465,-5.3651 42.7938,-30.45038 24.3165,-52.3741 -0.1405,13.39083 1.8263,40.93436 -23.4532,41.29496 -25.2796,0.36061 -28.3465,-8.06166 -33.5252,-36.69064 z"
     id="path853-6"
     inkscape:connector-curvature="0"
     sodipodi:nodetypes="ccczc" />
  <g
     id="g904"
     transform="translate(-441.08556,-238.83163)"
     style="fill:#ffffff;stroke:none">
    <path
       sodipodi:nodetypes="ccczc"
       inkscape:connector-curvature="0"
       id="path853-2-0"
       d="m 623.5081,683.12951 c -5.25083,38.89191 13.75719,49.63921 32.66187,47.76978 27.54651,-5.3651 42.79389,-30.45038 24.31655,-52.3741 -0.14052,13.39083 1.82631,40.93436 -23.45324,41.29496 -25.27956,0.36061 -28.34646,-8.06166 -33.52518,-36.69064 z"
       style="opacity:1;fill:#ffffff;fill-opacity:0.98529412;stroke:none;stroke-width:1;stroke-linecap:round;stroke-linejoin:round;stroke-miterlimit:4;stroke-dasharray:none;stroke-dashoffset:0;stroke-opacity:1" />
    <path
       sodipodi:nodetypes="ccczc"
       inkscape:connector-curvature="0"
       id="path853-6-9"
       d="m 699.35651,683.05774 c -5.25083,38.89191 13.75719,49.63921 32.66187,47.76978 27.54651,-5.3651 42.79389,-30.45038 24.31655,-52.3741 -0.14052,13.39083 1.82631,40.93436 -23.45324,41.29496 -25.27956,0.36061 -28.34646,-8.06166 -33.52518,-36.69064 z"
       style="opacity:1;fill:#ffffff;fill-opacity:0.98529412;stroke:none;stroke-width:1;stroke-linecap:round;stroke-linejoin:round;stroke-miterlimit:4;stroke-dasharray:none;stroke-dashoffset:0;stroke-opacity:1" />
  </g>
  <path
     style="opacity:1;fill:#ffffff;fill-opacity:0.98529412;stroke:none;stroke-width:1;stroke-linecap:round;stroke-linejoin:round;stroke-miterlimit:4;stroke-dasharray:none;stroke-dashoffset:0;stroke-opacity:1"
     d="m 220.34677,522.81296 c -5.2509,38.89191 13.7572,49.63921 32.6618,47.76978 27.5466,-5.3651 42.7939,-30.45038 24.3166,-52.3741 -0.1405,13.39082 1.8263,40.93436 -23.4532,41.29496 -25.2796,0.36061 -28.3465,-8.06166 -33.5252,-36.69064 z"
     id="path853-2-6"
     inkscape:connector-curvature="0"
     sodipodi:nodetypes="ccczc" />
  <circle
     style="opacity:1;fill:#ffffff;fill-opacity:0.98529412;stroke:#ffffff;stroke-width:1;stroke-linecap:round;stroke-linejoin:round;stroke-miterlimit:4;stroke-dasharray:none;stroke-dashoffset:0;stroke-opacity:1"
     id="path917"
     cx="185.06688"
     cy="204.89211"
     r="9.784173" />
  <circle
     style="opacity:1;fill:#ffffff;fill-opacity:0.98529412;stroke:#ffffff;stroke-width:1;stroke-linecap:round;stroke-linejoin:round;stroke-miterlimit:4;stroke-dasharray:none;stroke-dashoffset:0;stroke-opacity:1"
     id="path917-8"
     cx="328.95178"
     cy="210.64751"
     r="9.784173" />
</svg>
